<svg xmlns="http://www.w3.org/2000/svg" viewBox="26 23.8 24.458 34.2">
  <defs>
    <style>
      .cls-1 {
        fill: #231f20;
      }
    </style>
  </defs>
  <g id="group" transform="translate(26 23.8)">
    <path id="path" class="cls-1" d="M24.253,18.667l-3.338-3.338a.576.576,0,0,0-.409-.136H18.463l2.453-2.453a.576.576,0,0,0,.136-.409V3.883a.968.968,0,0,0-.136-.409L17.577.136A.52.52,0,0,0,17.236,0H.545A.537.537,0,0,0,0,.545V10.56a.586.586,0,0,0,.545.545H7.222a.586.586,0,0,0,.545-.545V1.09h9.265l3,3v8.039l-3,3H.545A.586.586,0,0,0,0,15.669V33.655a.586.586,0,0,0,.545.545H18.871a.968.968,0,0,0,.409-.136l5.041-5.246a.52.52,0,0,0,.136-.341v-9.47A.375.375,0,0,0,24.253,18.667ZM1.09,2.112,3.27,5.45,1.09,8.72ZM1.635,1.09H6.2L3.883,4.5ZM3.883,6.472,6.2,10.015H1.567Zm.681-.954,2.112-3.2V8.788Zm12.672,10.7H20.37l3,3v8.039h-5.11a.586.586,0,0,0-.545.545V33.11H7.767v-16.9ZM1.09,23.436H6.676v2.521H1.09Zm5.586-1.09H1.09V19.825H6.676Zm-5.586,4.7H6.676v2.521H1.09ZM6.676,16.214v2.521H1.09V16.214ZM1.09,30.657H6.676v2.521H1.09Zm17.645,2.384v-4.7h4.428Z"/>
  </g>
</svg>
